<svg width="25" height="24" viewBox="0 0 25 24" fill="none" xmlns="http://www.w3.org/2000/svg">
<path d="M15.2071 6.29289C14.8166 5.90237 14.1834 5.90237 13.7929 6.29289C13.4024 6.68342 13.4024 7.31658 13.7929 7.70711L17.0858 11L5.5 11C4.94772 11 4.5 11.4477 4.5 12C4.5 12.5523 4.94772 13 5.5 13L17.0858 13L13.7929 16.2929C13.4024 16.6834 13.4024 17.3166 13.7929 17.7071C14.1834 18.0976 14.8166 18.0976 15.2071 17.7071L20.2059 12.7083C20.21 12.7043 20.214 12.7002 20.218 12.6961C20.3919 12.5167 20.4992 12.2724 20.5 12.003L20.5 12L20.5 11.997C20.4996 11.8625 20.4727 11.7343 20.4241 11.6172C20.3753 11.4993 20.303 11.3888 20.2071 11.2929L15.2071 6.29289Z" fill="white"/>
</svg>
