<svg width="16" height="16" viewBox="0 0 16 16" fill="none" xmlns="http://www.w3.org/2000/svg">
<path d="M12.736 3.97C12.8042 3.90036 12.8857 3.84504 12.9756 3.80728C13.0655 3.76951 13.162 3.75006 13.2595 3.75006C13.357 3.75006 13.4535 3.76951 13.5434 3.80728C13.6333 3.84504 13.7147 3.90036 13.783 3.97C14.069 4.259 14.073 4.72599 13.793 5.01999L7.88 12.01C7.81286 12.0837 7.73139 12.143 7.64057 12.1841C7.54975 12.2253 7.45149 12.2475 7.3518 12.2493C7.25211 12.2512 7.15309 12.2327 7.06079 12.195C6.96849 12.1573 6.88485 12.1011 6.815 12.03L3.217 8.384C3.07823 8.24248 3.0005 8.05219 3.0005 7.854C3.0005 7.6558 3.07823 7.46551 3.217 7.32399C3.28524 7.25436 3.36669 7.19904 3.45658 7.16128C3.54647 7.12351 3.64299 7.10406 3.7405 7.10406C3.838 7.10406 3.93452 7.12351 4.02441 7.16128C4.1143 7.19904 4.19575 7.25436 4.264 7.32399L7.316 10.417L12.716 3.992C12.7222 3.98427 12.7289 3.97692 12.736 3.97Z" fill="black"/>
</svg>
